<?xml version="1.0" encoding="utf-8"?>
<!-- Generator: Adobe Illustrator 20.0.0, SVG Export Plug-In . SVG Version: 6.00 Build 0)  -->
<svg version="1.1" id="Layer_1" xmlns="http://www.w3.org/2000/svg" xmlns:xlink="http://www.w3.org/1999/xlink" x="0px" y="0px"
	 viewBox="0 0 160 160" enable-background="new 0 0 160 160" xml:space="preserve">
<g>
	<path fill="#1ABC9C" d="M147.8,51.9c-3.9-8.9-9.2-16.7-15.9-23.5c-6.7-6.7-14.5-12-23.5-16c-8.9-3.9-18.4-5.9-28.4-5.9
		c-10.1,0-19.6,2-28.5,5.9c-8.9,3.9-16.6,9.3-23.3,16C21.7,35.2,16.5,43,12.6,51.9c-3.9,8.9-5.8,18.4-5.8,28.4
		c0,10.1,1.9,19.6,5.8,28.5c3.9,8.9,9.1,16.6,15.8,23.3c6.6,6.6,14.4,11.9,23.3,15.7c8.9,3.8,18.4,5.7,28.5,5.7
		c10,0,19.4-1.9,28.4-5.7c8.9-3.8,16.7-9,23.5-15.7c6.7-6.6,12-14.4,15.9-23.3c3.9-8.9,5.8-18.4,5.8-28.5
		C153.6,70.3,151.7,60.9,147.8,51.9z M125.7,99.9c-2.6,6.1-6,11.4-10.4,16c-4.4,4.5-9.6,8.1-15.6,10.7c-6,2.6-12.3,3.9-19,3.9
		c-6.6,0-12.7-1.2-18.4-3.5c6.4-12.8,12.9-24.3,17.1-29.3c1.6,2.2,3.8,4.1,6.3,5.7l11.2,5.4c3.5,1.3,7,2.5,10.1,3.6
		c2.6,2.4,5.1-0.6,6.4-4.9c2.4-5.3-8.8-33.6-15.4-45.6C91.3,49,70.2,32.3,56.8,41.5C65,41.6,83,46.8,89.1,67c-0.1,0-0.2,0.1-0.3,0.1
		C82.9,56.6,65.1,42.6,54.4,50c6.6,0.1,21,4.2,26.1,20.2C65.2,75.7,45.8,84.8,34,97.3C32,92,31,86.3,31,80.3c0-7,1.3-13.5,3.8-19.6
		c2.6-6.1,6-11.5,10.4-16.1c4.4-4.6,9.6-8.2,15.6-10.8c6-2.6,12.4-3.9,19.2-3.9c6.8,0,13.2,1.3,19.2,3.9c6,2.6,11.2,6.2,15.7,10.8
		c4.5,4.6,8,10,10.6,16.1c2.6,6.1,3.9,12.6,3.9,19.6C129.6,87.3,128.3,93.8,125.7,99.9z"/>
</g>
</svg>
